<svg xmlns="http://www.w3.org/2000/svg" xmlns:xlink="http://www.w3.org/1999/xlink" xmlns:lucid="lucid" width="720" height="1323"><g transform="translate(-799 2027)" lucid:page-tab-id="0_0"><path d="M500-2000h2500v1500H500z" fill="#fff"/><path d="M1465.96-1784.86c0 33.13-35.82 60-80 60s-80-26.87-80-60c0-33.14 35.82-60 80-60s80 26.86 80 60z" stroke="#000" stroke-width="2" fill="#cfe4ff"/><use xlink:href="#a" transform="matrix(1,0,0,1,1305.96069474825,-1844.8642646478338) translate(20.57999999999999 63.15)"/><use xlink:href="#b" transform="matrix(1,0,0,1,1305.96069474825,-1844.8642646478338) translate(82.53 63.15)"/><path d="M1465.96-944.86c0 33.13-35.82 60-80 60s-80-26.87-80-60c0-33.14 35.82-60 80-60s80 26.86 80 60z" stroke="#000" stroke-width="2" fill="#cfe4ff"/><use xlink:href="#c" transform="matrix(1,0,0,1,1305.96069474825,-1004.8642646478338) translate(16.029999999999994 51.9)"/><use xlink:href="#d" transform="matrix(1,0,0,1,1305.96069474825,-1004.8642646478338) translate(78.98 51.9)"/><use xlink:href="#e" transform="matrix(1,0,0,1,1305.96069474825,-1004.8642646478338) translate(52.57999999999999 73.5)"/><path d="M1465.96-804.86c0 33.13-35.82 60-80 60s-80-26.87-80-60c0-33.14 35.82-60 80-60s80 26.86 80 60z" stroke="#000" stroke-width="2" fill="#cfe4ff"/><use xlink:href="#f" transform="matrix(1,0,0,1,1305.96069474825,-864.8642646478338) translate(36.529999999999994 51.9)"/><use xlink:href="#g" transform="matrix(1,0,0,1,1305.96069474825,-864.8642646478338) translate(33.879999999999995 73.5)"/><path d="M1465.96-1926c0 33.14-35.82 60-80 60s-80-26.86-80-60 35.82-60 80-60 80 26.86 80 60z" stroke="#000" stroke-width="2" fill="#cfe4ff"/><use xlink:href="#h" transform="matrix(1,0,0,1,1305.96069474825,-1986) translate(22.104999999999997 51.9)"/><use xlink:href="#i" transform="matrix(1,0,0,1,1305.96069474825,-1986) translate(62.529999999999994 73.5)"/><path d="M1465.96-1644.86c0 33.13-35.82 60-80 60s-80-26.87-80-60c0-33.14 35.82-60 80-60s80 26.86 80 60z" stroke="#000" stroke-width="2" fill="#cfe4ff"/><use xlink:href="#j" transform="matrix(1,0,0,1,1305.96069474825,-1704.8642646478338) translate(43.529999999999994 51.9)"/><use xlink:href="#k" transform="matrix(1,0,0,1,1305.96069474825,-1704.8642646478338) translate(86.47999999999999 51.9)"/><use xlink:href="#l" transform="matrix(1,0,0,1,1305.96069474825,-1704.8642646478338) translate(24.12999999999999 73.5)"/><use xlink:href="#m" transform="matrix(1,0,0,1,1305.96069474825,-1704.8642646478338) translate(87.98 73.5)"/><path d="M1465.96-1364.86c0 33.13-35.82 60-80 60s-80-26.87-80-60c0-33.14 35.82-60 80-60s80 26.86 80 60z" stroke="#000" stroke-width="2" fill="#cfe4ff"/><use xlink:href="#n" transform="matrix(1,0,0,1,1305.96069474825,-1424.8642646478338) translate(11.080000000000007 63.15)"/><use xlink:href="#o" transform="matrix(1,0,0,1,1305.96069474825,-1424.8642646478338) translate(48.080000000000005 63.15)"/><use xlink:href="#p" transform="matrix(1,0,0,1,1305.96069474825,-1424.8642646478338) translate(100.98 63.15)"/><use xlink:href="#q" transform="matrix(1,0,0,1,1305.96069474825,-1424.8642646478338) translate(120.98 63.15)"/><path d="M1465.96-1224.86c0 33.13-35.82 60-80 60s-80-26.87-80-60c0-33.14 35.82-60 80-60s80 26.86 80 60z" stroke="#000" stroke-width="2" fill="#cfe4ff"/><use xlink:href="#r" transform="matrix(1,0,0,1,1305.96069474825,-1284.8642646478338) translate(34.279999999999994 51.9)"/><use xlink:href="#s" transform="matrix(1,0,0,1,1305.96069474825,-1284.8642646478338) translate(77.83 51.9)"/><use xlink:href="#t" transform="matrix(1,0,0,1,1305.96069474825,-1284.8642646478338) translate(52.57999999999999 73.5)"/><path d="M1465.96-1084.86c0 33.13-35.82 60-80 60s-80-26.87-80-60c0-33.14 35.82-60 80-60s80 26.86 80 60z" stroke="#000" stroke-width="2" fill="#cfe4ff"/><use xlink:href="#u" transform="matrix(1,0,0,1,1305.96069474825,-1144.8642646478338) translate(17.20499999999999 51.9)"/><use xlink:href="#v" transform="matrix(1,0,0,1,1305.96069474825,-1144.8642646478338) translate(40.879999999999995 73.5)"/><path d="M899.75-1435.68c0 10.9-8.84 19.75-19.75 19.75-10.9 0-19.75-8.85-19.75-19.75s8.84-19.75 19.75-19.75c10.9 0 19.75 8.84 19.75 19.75z" stroke="#000" stroke-width="2" fill="#cfe4ff"/><path d="M880-1415.93v49.3a20.7 20.7 0 0 0 3.2 11.07l36.8 58.13m-40-63.2l-40 63.2m0-98.75h80" stroke="#000" stroke-width="2" fill="none"/><path d="M840-1449.43a6 6 0 0 1 6-6h68a6 6 0 0 1 6 6v168a6 6 0 0 1-6 6h-68a6 6 0 0 1-6-6z" fill="none"/><use xlink:href="#w" transform="matrix(1,0,0,1,760,-1297.432132323917) translate(96.60493827160494 17.77777777777778)"/><path d="M882.04-1365.43H1087a6 6 0 0 0 6-6V-1920a6 6 0 0 1 6-6h187.46M882.07-1365.43h-4.03" stroke="#000" stroke-width="2" fill="none"/><path d="M1301.72-1926l-14.26 4.63v-9.27z" stroke="#000" stroke-width="2"/><path d="M882.04-1365.43H1087a6 6 0 0 0 6-6v-407.43a6 6 0 0 1 6-6h187.46M882.07-1365.43h-4.03" stroke="#000" stroke-width="2" fill="none"/><path d="M1301.72-1784.86l-14.26 4.63v-9.27z" stroke="#000" stroke-width="2"/><path d="M882.04-1365.43H1087a6 6 0 0 0 6-6v-267.43a6 6 0 0 1 6-6h187.46M882.07-1365.43h-4.03" stroke="#000" stroke-width="2" fill="none"/><path d="M1301.72-1644.86l-14.26 4.63v-9.27z" stroke="#000" stroke-width="2"/><path d="M882.04-1365.43h210.68a.28.28 0 0 1 .28.28.28.28 0 0 0 .28.3h193.18M882.07-1365.43h-4.03" stroke="#000" stroke-width="2" fill="none"/><path d="M1301.72-1364.86l-14.26 4.63v-9.27z" stroke="#000" stroke-width="2"/><path d="M882.04-1365.43H1087a6 6 0 0 1 6 6v128.57a6 6 0 0 0 6 6h187.46M882.07-1365.43h-4.03" stroke="#000" stroke-width="2" fill="none"/><path d="M1301.72-1224.86l-14.26 4.63v-9.27z" stroke="#000" stroke-width="2"/><path d="M882.04-1365.43H1087a6 6 0 0 1 6 6v268.57a6 6 0 0 0 6 6h187.46M882.07-1365.43h-4.03" stroke="#000" stroke-width="2" fill="none"/><path d="M1301.72-1084.86l-14.26 4.63v-9.27z" stroke="#000" stroke-width="2"/><path d="M882.04-1365.43h204.44a6 6 0 0 1 6 6v408.57a6 6 0 0 0 6 6h187.98M882.07-1365.43h-4.03" stroke="#000" stroke-width="2" fill="none"/><path d="M1301.72-944.86l-14.26 4.63v-9.27z" stroke="#000" stroke-width="2"/><path d="M882.04-1365.43H1087a6 6 0 0 1 6 6v548.57a6 6 0 0 0 6 6h187.46M882.07-1365.43h-4.03" stroke="#000" stroke-width="2" fill="none"/><path d="M1301.72-804.86l-14.26 4.63v-9.27z" stroke="#000" stroke-width="2"/><path d="M1465.96-1504.86c0 33.13-35.82 60-80 60s-80-26.87-80-60c0-33.14 35.82-60 80-60s80 26.86 80 60z" stroke="#000" stroke-width="2" fill="#cfe4ff"/><g><use xlink:href="#j" transform="matrix(1,0,0,1,1305.96069474825,-1564.8642646478338) translate(43.529999999999994 51.9)"/><use xlink:href="#k" transform="matrix(1,0,0,1,1305.96069474825,-1564.8642646478338) translate(86.47999999999999 51.9)"/><use xlink:href="#l" transform="matrix(1,0,0,1,1305.96069474825,-1564.8642646478338) translate(24.12999999999999 73.5)"/><use xlink:href="#m" transform="matrix(1,0,0,1,1305.96069474825,-1564.8642646478338) translate(87.98 73.5)"/></g><path d="M882.04-1365.43H1087a6 6 0 0 0 6-6v-127.43a6 6 0 0 1 6-6h187.46M882.07-1365.43h-4.03" stroke="#3a414a" stroke-width="2" fill="none"/><path d="M1301.72-1504.86l-14.26 4.63v-9.27z" stroke="#3a414a" stroke-width="2" fill="#3a414a"/><defs><path d="M185-189c-5-48-123-54-124 2 14 75 158 14 163 119 3 78-121 87-175 55-17-10-28-26-33-46l33-7c5 56 141 63 141-1 0-78-155-14-162-118-5-82 145-84 179-34 5 7 8 16 11 25" id="x"/><path d="M100-194c63 0 86 42 84 106H49c0 40 14 67 53 68 26 1 43-12 49-29l28 8c-11 28-37 45-77 45C44 4 14-33 15-96c1-61 26-98 85-98zm52 81c6-60-76-77-97-28-3 7-6 17-6 28h103" id="y"/><path d="M141-36C126-15 110 5 73 4 37 3 15-17 15-53c-1-64 63-63 125-63 3-35-9-54-41-54-24 1-41 7-42 31l-33-3c5-37 33-52 76-52 45 0 72 20 72 64v82c-1 20 7 32 28 27v20c-31 9-61-2-59-35zM48-53c0 20 12 33 32 33 41-3 63-29 60-74-43 2-92-5-92 41" id="z"/><path d="M114-163C36-179 61-72 57 0H25l-1-190h30c1 12-1 29 2 39 6-27 23-49 58-41v29" id="A"/><path d="M96-169c-40 0-48 33-48 73s9 75 48 75c24 0 41-14 43-38l32 2c-6 37-31 61-74 61-59 0-76-41-82-99-10-93 101-131 147-64 4 7 5 14 7 22l-32 3c-4-21-16-35-41-35" id="B"/><path d="M106-169C34-169 62-67 57 0H25v-261h32l-1 103c12-21 28-36 61-36 89 0 53 116 60 194h-32v-121c2-32-8-49-39-48" id="C"/><g id="a"><use transform="matrix(0.05,0,0,0.05,0,0)" xlink:href="#x"/><use transform="matrix(0.05,0,0,0.05,12,0)" xlink:href="#y"/><use transform="matrix(0.05,0,0,0.05,22,0)" xlink:href="#z"/><use transform="matrix(0.05,0,0,0.05,32,0)" xlink:href="#A"/><use transform="matrix(0.05,0,0,0.05,37.95,0)" xlink:href="#B"/><use transform="matrix(0.05,0,0,0.05,46.95,0)" xlink:href="#C"/></g><path d="M240 0l2-218c-23 76-54 145-80 218h-23L58-218 59 0H30v-248h44l77 211c21-75 51-140 76-211h43V0h-30" id="D"/><path d="M100-194c62-1 85 37 85 99 1 63-27 99-86 99S16-35 15-95c0-66 28-99 85-99zM99-20c44 1 53-31 53-75 0-43-8-75-51-75s-53 32-53 75 10 74 51 75" id="E"/><path d="M108 0H70L1-190h34L89-25l56-165h34" id="F"/><path d="M24-231v-30h32v30H24zM24 0v-190h32V0H24" id="G"/><path d="M135-143c-3-34-86-38-87 0 15 53 115 12 119 90S17 21 10-45l28-5c4 36 97 45 98 0-10-56-113-15-118-90-4-57 82-63 122-42 12 7 21 19 24 35" id="H"/><g id="b"><use transform="matrix(0.05,0,0,0.05,0,0)" xlink:href="#D"/><use transform="matrix(0.05,0,0,0.05,14.950000000000001,0)" xlink:href="#E"/><use transform="matrix(0.05,0,0,0.05,24.950000000000003,0)" xlink:href="#F"/><use transform="matrix(0.05,0,0,0.05,33.95,0)" xlink:href="#G"/><use transform="matrix(0.05,0,0,0.05,37.900000000000006,0)" xlink:href="#y"/><use transform="matrix(0.05,0,0,0.05,47.900000000000006,0)" xlink:href="#H"/></g><path d="M232-93c-1 65-40 97-104 97C67 4 28-28 28-90v-158h33c8 89-33 224 67 224 102 0 64-133 71-224h33v155" id="I"/><path d="M115-194c55 1 70 41 70 98S169 2 115 4C84 4 66-9 55-30l1 105H24l-1-265h31l2 30c10-21 28-34 59-34zm-8 174c40 0 45-34 45-75s-6-73-45-74c-42 0-51 32-51 76 0 43 10 73 51 73" id="J"/><path d="M85-194c31 0 48 13 60 33l-1-100h32l1 261h-30c-2-10 0-23-3-31C134-8 116 4 85 4 32 4 16-35 15-94c0-66 23-100 70-100zm9 24c-40 0-46 34-46 75 0 40 6 74 45 74 42 0 51-32 51-76 0-42-9-74-50-73" id="K"/><path d="M59-47c-2 24 18 29 38 22v24C64 9 27 4 27-40v-127H5v-23h24l9-43h21v43h35v23H59v120" id="L"/><g id="c"><use transform="matrix(0.05,0,0,0.05,0,0)" xlink:href="#I"/><use transform="matrix(0.05,0,0,0.05,12.950000000000001,0)" xlink:href="#J"/><use transform="matrix(0.05,0,0,0.05,22.950000000000003,0)" xlink:href="#K"/><use transform="matrix(0.05,0,0,0.05,32.95,0)" xlink:href="#z"/><use transform="matrix(0.05,0,0,0.05,42.95,0)" xlink:href="#L"/><use transform="matrix(0.05,0,0,0.05,47.95,0)" xlink:href="#y"/></g><path d="M205 0l-28-72H64L36 0H1l101-248h38L239 0h-34zm-38-99l-47-123c-12 45-31 82-46 123h93" id="M"/><path d="M84 4C-5 8 30-112 23-190h32v120c0 31 7 50 39 49 72-2 45-101 50-169h31l1 190h-30c-1-10 1-25-2-33-11 22-28 36-60 37" id="N"/><path d="M117-194c89-4 53 116 60 194h-32v-121c0-31-8-49-39-48C34-167 62-67 57 0H25l-1-190h30c1 10-1 24 2 32 11-22 29-35 61-36" id="O"/><g id="d"><use transform="matrix(0.05,0,0,0.05,0,0)" xlink:href="#M"/><use transform="matrix(0.05,0,0,0.05,12,0)" xlink:href="#B"/><use transform="matrix(0.05,0,0,0.05,21,0)" xlink:href="#B"/><use transform="matrix(0.05,0,0,0.05,30,0)" xlink:href="#E"/><use transform="matrix(0.05,0,0,0.05,40,0)" xlink:href="#N"/><use transform="matrix(0.05,0,0,0.05,50,0)" xlink:href="#O"/><use transform="matrix(0.05,0,0,0.05,60,0)" xlink:href="#L"/></g><path d="M30-248c118-7 216 8 213 122C240-48 200 0 122 0H30v-248zM63-27c89 8 146-16 146-99s-60-101-146-95v194" id="P"/><path d="M24 0v-261h32V0H24" id="Q"/><g id="e"><use transform="matrix(0.05,0,0,0.05,0,0)" xlink:href="#P"/><use transform="matrix(0.05,0,0,0.05,12.950000000000001,0)" xlink:href="#y"/><use transform="matrix(0.05,0,0,0.05,22.950000000000003,0)" xlink:href="#L"/><use transform="matrix(0.05,0,0,0.05,27.950000000000003,0)" xlink:href="#z"/><use transform="matrix(0.05,0,0,0.05,37.95,0)" xlink:href="#G"/><use transform="matrix(0.05,0,0,0.05,41.900000000000006,0)" xlink:href="#Q"/><use transform="matrix(0.05,0,0,0.05,45.85000000000001,0)" xlink:href="#H"/></g><path d="M153-248C145-148 188 4 80 4 36 3 13-21 6-62l32-5c4 25 16 42 43 43 27 0 39-20 39-49v-147H72v-28h81" id="R"/><path d="M0 4l72-265h28L28 4H0" id="S"/><path d="M30 0v-248h33v221h125V0H30" id="T"/><g id="f"><use transform="matrix(0.05,0,0,0.05,0,0)" xlink:href="#R"/><use transform="matrix(0.05,0,0,0.05,9,0)" xlink:href="#E"/><use transform="matrix(0.05,0,0,0.05,19,0)" xlink:href="#G"/><use transform="matrix(0.05,0,0,0.05,22.95,0)" xlink:href="#O"/><use transform="matrix(0.05,0,0,0.05,32.95,0)" xlink:href="#S"/><use transform="matrix(0.05,0,0,0.05,37.95,0)" xlink:href="#T"/><use transform="matrix(0.05,0,0,0.05,47.95,0)" xlink:href="#y"/><use transform="matrix(0.05,0,0,0.05,57.95,0)" xlink:href="#z"/><use transform="matrix(0.05,0,0,0.05,67.95,0)" xlink:href="#F"/><use transform="matrix(0.05,0,0,0.05,76.95,0)" xlink:href="#y"/></g><path d="M266 0h-40l-56-210L115 0H75L2-248h35L96-30l15-64 43-154h32l59 218 59-218h35" id="U"/><path d="M30-248c87 1 191-15 191 75 0 78-77 80-158 76V0H30v-248zm33 125c57 0 124 11 124-50 0-59-68-47-124-48v98" id="V"/><path d="M179-190L93 31C79 59 56 82 12 73V49c39 6 53-20 64-50L1-190h34L92-34l54-156h33" id="W"/><g id="g"><use transform="matrix(0.05,0,0,0.05,0,0)" xlink:href="#U"/><use transform="matrix(0.05,0,0,0.05,16.3,0)" xlink:href="#z"/><use transform="matrix(0.05,0,0,0.05,26.3,0)" xlink:href="#L"/><use transform="matrix(0.05,0,0,0.05,31.3,0)" xlink:href="#B"/><use transform="matrix(0.05,0,0,0.05,40.3,0)" xlink:href="#C"/><use transform="matrix(0.05,0,0,0.05,50.3,0)" xlink:href="#V"/><use transform="matrix(0.05,0,0,0.05,62.29999999999999,0)" xlink:href="#z"/><use transform="matrix(0.05,0,0,0.05,72.3,0)" xlink:href="#A"/><use transform="matrix(0.05,0,0,0.05,78.25,0)" xlink:href="#L"/><use transform="matrix(0.05,0,0,0.05,83.25,0)" xlink:href="#W"/></g><path d="M233-177c-1 41-23 64-60 70L243 0h-38l-65-103H63V0H30v-248c88 3 205-21 203 71zM63-129c60-2 137 13 137-47 0-61-80-42-137-45v92" id="X"/><path d="M177-190C167-65 218 103 67 71c-23-6-38-20-44-43l32-5c15 47 100 32 89-28v-30C133-14 115 1 83 1 29 1 15-40 15-95c0-56 16-97 71-98 29-1 48 16 59 35 1-10 0-23 2-32h30zM94-22c36 0 50-32 50-73 0-42-14-75-50-75-39 0-46 34-46 75s6 73 46 73" id="Y"/><g id="h"><use transform="matrix(0.05,0,0,0.05,0,0)" xlink:href="#X"/><use transform="matrix(0.05,0,0,0.05,12.950000000000001,0)" xlink:href="#y"/><use transform="matrix(0.05,0,0,0.05,22.950000000000003,0)" xlink:href="#Y"/><use transform="matrix(0.05,0,0,0.05,32.95,0)" xlink:href="#G"/><use transform="matrix(0.05,0,0,0.05,36.900000000000006,0)" xlink:href="#H"/><use transform="matrix(0.05,0,0,0.05,45.900000000000006,0)" xlink:href="#L"/><use transform="matrix(0.05,0,0,0.05,50.900000000000006,0)" xlink:href="#y"/><use transform="matrix(0.05,0,0,0.05,60.900000000000006,0)" xlink:href="#A"/><use transform="matrix(0.05,0,0,0.05,66.85000000000001,0)" xlink:href="#S"/><use transform="matrix(0.05,0,0,0.05,71.85000000000001,0)" xlink:href="#T"/><use transform="matrix(0.05,0,0,0.05,81.85000000000001,0)" xlink:href="#E"/><use transform="matrix(0.05,0,0,0.05,91.85000000000001,0)" xlink:href="#Y"/><use transform="matrix(0.05,0,0,0.05,101.85000000000001,0)" xlink:href="#G"/><use transform="matrix(0.05,0,0,0.05,105.80000000000001,0)" xlink:href="#O"/></g><g id="i"><use transform="matrix(0.05,0,0,0.05,0,0)" xlink:href="#N"/><use transform="matrix(0.05,0,0,0.05,10,0)" xlink:href="#H"/><use transform="matrix(0.05,0,0,0.05,19,0)" xlink:href="#y"/><use transform="matrix(0.05,0,0,0.05,29,0)" xlink:href="#A"/></g><g id="j"><use transform="matrix(0.05,0,0,0.05,0,0)" xlink:href="#X"/><use transform="matrix(0.05,0,0,0.05,12.950000000000001,0)" xlink:href="#z"/><use transform="matrix(0.05,0,0,0.05,22.950000000000003,0)" xlink:href="#L"/><use transform="matrix(0.05,0,0,0.05,27.950000000000003,0)" xlink:href="#y"/></g><g id="k"><use transform="matrix(0.05,0,0,0.05,0,0)" xlink:href="#z"/><use transform="matrix(0.05,0,0,0.05,10,0)" xlink:href="#O"/><use transform="matrix(0.05,0,0,0.05,20,0)" xlink:href="#K"/></g><path d="M206 0h-36l-40-164L89 0H53L-1-190h32L70-26l43-164h34l41 164 42-164h31" id="Z"/><g id="l"><use transform="matrix(0.05,0,0,0.05,0,0)" xlink:href="#X"/><use transform="matrix(0.05,0,0,0.05,12.950000000000001,0)" xlink:href="#y"/><use transform="matrix(0.05,0,0,0.05,22.950000000000003,0)" xlink:href="#F"/><use transform="matrix(0.05,0,0,0.05,31.950000000000003,0)" xlink:href="#G"/><use transform="matrix(0.05,0,0,0.05,35.900000000000006,0)" xlink:href="#y"/><use transform="matrix(0.05,0,0,0.05,45.900000000000006,0)" xlink:href="#Z"/></g><g id="m"><use transform="matrix(0.05,0,0,0.05,0,0)" xlink:href="#D"/><use transform="matrix(0.05,0,0,0.05,14.950000000000001,0)" xlink:href="#E"/><use transform="matrix(0.05,0,0,0.05,24.950000000000003,0)" xlink:href="#F"/><use transform="matrix(0.05,0,0,0.05,33.95,0)" xlink:href="#G"/><use transform="matrix(0.05,0,0,0.05,37.900000000000006,0)" xlink:href="#y"/></g><g id="n"><use transform="matrix(0.05,0,0,0.05,0,0)" xlink:href="#M"/><use transform="matrix(0.05,0,0,0.05,12,0)" xlink:href="#K"/><use transform="matrix(0.05,0,0,0.05,22,0)" xlink:href="#K"/></g><g id="o"><use transform="matrix(0.05,0,0,0.05,0,0)" xlink:href="#D"/><use transform="matrix(0.05,0,0,0.05,14.950000000000001,0)" xlink:href="#E"/><use transform="matrix(0.05,0,0,0.05,24.950000000000003,0)" xlink:href="#F"/><use transform="matrix(0.05,0,0,0.05,33.95,0)" xlink:href="#G"/><use transform="matrix(0.05,0,0,0.05,37.900000000000006,0)" xlink:href="#y"/></g><g id="p"><use transform="matrix(0.05,0,0,0.05,0,0)" xlink:href="#L"/><use transform="matrix(0.05,0,0,0.05,5,0)" xlink:href="#E"/></g><g id="q"><use transform="matrix(0.05,0,0,0.05,0,0)" xlink:href="#T"/><use transform="matrix(0.05,0,0,0.05,10,0)" xlink:href="#G"/><use transform="matrix(0.05,0,0,0.05,13.949999999999998,0)" xlink:href="#H"/><use transform="matrix(0.05,0,0,0.05,22.95,0)" xlink:href="#L"/></g><path d="M137 0h-34L2-248h35l83 218 83-218h36" id="aa"/><g id="r"><use transform="matrix(0.05,0,0,0.05,0,0)" xlink:href="#aa"/><use transform="matrix(0.05,0,0,0.05,11.65,0)" xlink:href="#G"/><use transform="matrix(0.05,0,0,0.05,15.600000000000001,0)" xlink:href="#y"/><use transform="matrix(0.05,0,0,0.05,25.6,0)" xlink:href="#Z"/></g><g id="s"><use transform="matrix(0.05,0,0,0.05,0,0)" xlink:href="#D"/><use transform="matrix(0.05,0,0,0.05,14.950000000000001,0)" xlink:href="#E"/><use transform="matrix(0.05,0,0,0.05,24.950000000000003,0)" xlink:href="#F"/><use transform="matrix(0.05,0,0,0.05,33.95,0)" xlink:href="#G"/><use transform="matrix(0.05,0,0,0.05,37.900000000000006,0)" xlink:href="#y"/></g><g id="t"><use transform="matrix(0.05,0,0,0.05,0,0)" xlink:href="#P"/><use transform="matrix(0.05,0,0,0.05,12.950000000000001,0)" xlink:href="#y"/><use transform="matrix(0.05,0,0,0.05,22.950000000000003,0)" xlink:href="#L"/><use transform="matrix(0.05,0,0,0.05,27.950000000000003,0)" xlink:href="#z"/><use transform="matrix(0.05,0,0,0.05,37.95,0)" xlink:href="#Q"/><use transform="matrix(0.05,0,0,0.05,41.900000000000006,0)" xlink:href="#G"/><use transform="matrix(0.05,0,0,0.05,45.85000000000001,0)" xlink:href="#H"/></g><path d="M63-220v92h138v28H63V0H30v-248h175v28H63" id="ab"/><path d="M101-234c-31-9-42 10-38 44h38v23H63V0H32v-167H5v-23h27c-7-52 17-82 69-68v24" id="ac"/><g id="u"><use transform="matrix(0.05,0,0,0.05,0,0)" xlink:href="#ab"/><use transform="matrix(0.05,0,0,0.05,10.950000000000001,0)" xlink:href="#E"/><use transform="matrix(0.05,0,0,0.05,20.950000000000003,0)" xlink:href="#Q"/><use transform="matrix(0.05,0,0,0.05,24.900000000000002,0)" xlink:href="#Q"/><use transform="matrix(0.05,0,0,0.05,28.85,0)" xlink:href="#E"/><use transform="matrix(0.05,0,0,0.05,38.85,0)" xlink:href="#Z"/><use transform="matrix(0.05,0,0,0.05,51.800000000000004,0)" xlink:href="#S"/><use transform="matrix(0.05,0,0,0.05,56.800000000000004,0)" xlink:href="#I"/><use transform="matrix(0.05,0,0,0.05,69.75,0)" xlink:href="#O"/><use transform="matrix(0.05,0,0,0.05,79.75,0)" xlink:href="#ac"/><use transform="matrix(0.05,0,0,0.05,84.75,0)" xlink:href="#E"/><use transform="matrix(0.05,0,0,0.05,94.75,0)" xlink:href="#Q"/><use transform="matrix(0.05,0,0,0.05,98.7,0)" xlink:href="#Q"/><use transform="matrix(0.05,0,0,0.05,102.65,0)" xlink:href="#E"/><use transform="matrix(0.05,0,0,0.05,112.65,0)" xlink:href="#Z"/></g><g id="v"><use transform="matrix(0.05,0,0,0.05,0,0)" xlink:href="#U"/><use transform="matrix(0.05,0,0,0.05,16.3,0)" xlink:href="#z"/><use transform="matrix(0.05,0,0,0.05,26.3,0)" xlink:href="#L"/><use transform="matrix(0.05,0,0,0.05,31.3,0)" xlink:href="#B"/><use transform="matrix(0.05,0,0,0.05,40.3,0)" xlink:href="#C"/><use transform="matrix(0.05,0,0,0.05,50.3,0)" xlink:href="#T"/><use transform="matrix(0.05,0,0,0.05,60.29999999999999,0)" xlink:href="#G"/><use transform="matrix(0.05,0,0,0.05,64.25,0)" xlink:href="#H"/><use transform="matrix(0.05,0,0,0.05,73.25,0)" xlink:href="#L"/></g><path fill="#3a414a" d="M232-93c-1 65-40 97-104 97C67 4 28-28 28-90v-158h33c8 89-33 224 67 224 102 0 64-133 71-224h33v155" id="ad"/><path fill="#3a414a" d="M135-143c-3-34-86-38-87 0 15 53 115 12 119 90S17 21 10-45l28-5c4 36 97 45 98 0-10-56-113-15-118-90-4-57 82-63 122-42 12 7 21 19 24 35" id="ae"/><path fill="#3a414a" d="M100-194c63 0 86 42 84 106H49c0 40 14 67 53 68 26 1 43-12 49-29l28 8c-11 28-37 45-77 45C44 4 14-33 15-96c1-61 26-98 85-98zm52 81c6-60-76-77-97-28-3 7-6 17-6 28h103" id="af"/><path fill="#3a414a" d="M114-163C36-179 61-72 57 0H25l-1-190h30c1 12-1 29 2 39 6-27 23-49 58-41v29" id="ag"/><g id="w"><use transform="matrix(0.06172839506172839,0,0,0.06172839506172839,0,0)" xlink:href="#ad"/><use transform="matrix(0.06172839506172839,0,0,0.06172839506172839,15.987654320987653,0)" xlink:href="#ae"/><use transform="matrix(0.06172839506172839,0,0,0.06172839506172839,27.098765432098766,0)" xlink:href="#af"/><use transform="matrix(0.06172839506172839,0,0,0.06172839506172839,39.44444444444444,0)" xlink:href="#ag"/></g></defs></g></svg>