<svg xmlns="http://www.w3.org/2000/svg" xmlns:xlink="http://www.w3.org/1999/xlink" xmlns:lucid="lucid" width="660.96" height="1103.14"><g transform="translate(181 -89.5678676760831)" lucid:page-tab-id="0_0"><path d="M-500 0H500v1500H-500z" fill="#fff"/><path d="M-120.25 570.9c0 10.9-8.84 19.74-19.75 19.74-10.9 0-19.75-8.85-19.75-19.75 0-10.92 8.84-19.76 19.75-19.76 10.9 0 19.75 8.84 19.75 19.75z" stroke="#3a414a" stroke-width="2" fill="#fff"/><path d="M-140 590.64v49.3a20.7 20.7 0 0 0 3.2 11.07l36.8 58.14m-40-63.2l-40 63.2m0-98.75h80" stroke="#3a414a" stroke-width="2" fill="none"/><path d="M-180 557.14a6 6 0 0 1 6-6h68a6 6 0 0 1 6 6v168a6 6 0 0 1-6 6h-68a6 6 0 0 1-6-6z" fill="none"/><use xlink:href="#a" transform="matrix(1,0,0,1,-260,709.1357353521662) translate(95.20616319444444 21.52777777777778)"/><path d="M478.96 291.7c0 33.14-35.82 60-80 60s-80-26.86-80-60c0-33.13 35.82-60 80-60s80 26.87 80 60z" stroke="#282c33" stroke-width="2" fill="#fff"/><use xlink:href="#b" transform="matrix(1,0,0,1,318.96069474825003,231.7036030282493) translate(27.5412841796875 64.966875)"/><path d="M478.96 991.7c0 33.14-35.82 60-80 60s-80-26.86-80-60c0-33.13 35.82-60 80-60s80 26.87 80 60z" stroke="#282c33" stroke-width="2" fill="#fff"/><use xlink:href="#c" transform="matrix(1,0,0,1,318.96069474825003,931.7036030282493) translate(17.021567382812485 57.466875)"/><use xlink:href="#d" transform="matrix(1,0,0,1,318.96069474825003,931.7036030282493) translate(79.1590087890625 57.466875)"/><use xlink:href="#e" transform="matrix(1,0,0,1,318.96069474825003,931.7036030282493) translate(54.04900878906249 77.72162109375)"/><path d="M478.96 1131.7c0 33.14-35.82 60-80 60s-80-26.86-80-60c0-33.13 35.82-60 80-60s80 26.87 80 60z" stroke="#282c33" stroke-width="2" fill="#fff"/><use xlink:href="#f" transform="matrix(1,0,0,1,318.96069474825003,1071.7036030282493) translate(36.528408203125 57.466875)"/><use xlink:href="#g" transform="matrix(1,0,0,1,318.96069474825003,1071.7036030282493) translate(34.16208496093749 77.72162109375)"/><path d="M478.96 150.57c0 33.14-35.82 60-80 60s-80-26.86-80-60 35.82-60 80-60 80 26.86 80 60z" stroke="#282c33" stroke-width="2" fill="#fff"/><use xlink:href="#h" transform="matrix(1,0,0,1,318.96069474825003,90.5678676760831) translate(27.843715820312497 64.966875)"/><use xlink:href="#i" transform="matrix(1,0,0,1,318.96069474825003,90.5678676760831) translate(97.3702978515625 64.966875)"/><path d="M478.96 431.7c0 33.14-35.82 60-80 60s-80-26.86-80-60c0-33.13 35.82-60 80-60s80 26.87 80 60z" stroke="#282c33" stroke-width="2" fill="#fff"/><use xlink:href="#j" transform="matrix(1,0,0,1,318.96069474825003,371.7036030282493) translate(31.252202148437483 57.466875)"/><use xlink:href="#k" transform="matrix(1,0,0,1,318.96069474825003,371.7036030282493) translate(51.78894531249999 77.72162109375)"/><path d="M478.96 571.7c0 33.14-35.82 60-80 60s-80-26.86-80-60c0-33.13 35.82-60 80-60s80 26.87 80 60z" stroke="#282c33" stroke-width="2" fill="#fff"/><use xlink:href="#l" transform="matrix(1,0,0,1,318.96069474825003,511.7036030282493) translate(14.655244140624982 57.466875)"/><use xlink:href="#m" transform="matrix(1,0,0,1,318.96069474825003,511.7036030282493) translate(54.52717773437499 57.466875)"/><use xlink:href="#n" transform="matrix(1,0,0,1,318.96069474825003,511.7036030282493) translate(88.775517578125 57.466875)"/><use xlink:href="#o" transform="matrix(1,0,0,1,318.96069474825003,511.7036030282493) translate(56.2068994140625 77.72162109375)"/><path d="M478.96 711.7c0 33.14-35.82 60-80 60s-80-26.86-80-60c0-33.13 35.82-60 80-60s80 26.87 80 60z" stroke="#282c33" stroke-width="2" fill="#fff"/><use xlink:href="#p" transform="matrix(1,0,0,1,318.96069474825003,651.7036030282493) translate(29.21283203125 46.216875)"/><use xlink:href="#q" transform="matrix(1,0,0,1,318.96069474825003,651.7036030282493) translate(45.94874511718749 66.47162109375)"/><use xlink:href="#r" transform="matrix(1,0,0,1,318.96069474825003,651.7036030282493) translate(98.7108056640625 66.47162109375)"/><use xlink:href="#s" transform="matrix(1,0,0,1,318.96069474825003,651.7036030282493) translate(41.179316406249995 86.7263671875)"/><path d="M478.96 851.7c0 33.14-35.82 60-80 60s-80-26.86-80-60c0-33.13 35.82-60 80-60s80 26.87 80 60z" stroke="#282c33" stroke-width="2" fill="#fff"/><use xlink:href="#t" transform="matrix(1,0,0,1,318.96069474825003,791.7036030282493) translate(34.243823242187496 57.466875)"/><use xlink:href="#u" transform="matrix(1,0,0,1,318.96069474825003,791.7036030282493) translate(77.71224121093749 57.466875)"/><use xlink:href="#e" transform="matrix(1,0,0,1,318.96069474825003,791.7036030282493) translate(54.04900878906249 77.72162109375)"/><path d="M-137.96 641.14H83.5a6 6 0 0 1 6 6V845.7a6 6 0 0 0 6 6h206.47M-137.94 641.14h-4.02" stroke="#3a414a" stroke-width="2" fill="none"/><path d="M315.96 851.7l-13 7.5v-15z" stroke="#3a414a" stroke-width="2" fill="#3a414a"/><path d="M-137.96 641.14H83.5a6 6 0 0 1 6 6v58.56a6 6 0 0 0 6 6h206.47M-137.94 641.14h-4.02" stroke="#3a414a" stroke-width="2" fill="none"/><path d="M315.96 711.7l-13 7.5v-15z" stroke="#3a414a" stroke-width="2" fill="#3a414a"/><path d="M-137.96 641.14H83.5a6 6 0 0 0 6-6V577.7a6 6 0 0 1 6-6h206.47M-137.94 641.14h-4.02" stroke="#3a414a" stroke-width="2" fill="none"/><path d="M315.96 571.7l-13 7.5v-15z" stroke="#3a414a" stroke-width="2" fill="#3a414a"/><path d="M-137.96 641.14H83.5a6 6 0 0 0 6-6V437.7a6 6 0 0 1 6-6h206.47M-137.94 641.14h-4.02" stroke="#3a414a" stroke-width="2" fill="none"/><path d="M315.96 431.7l-13 7.5v-15z" stroke="#3a414a" stroke-width="2" fill="#3a414a"/><path d="M-137.96 641.14H83.5a6 6 0 0 0 6-6V297.7a6 6 0 0 1 6-6h206.47M-137.94 641.14h-4.02" stroke="#3a414a" stroke-width="2" fill="none"/><path d="M315.96 291.7l-13 7.5v-15z" stroke="#3a414a" stroke-width="2" fill="#3a414a"/><path d="M-137.96 641.14H83.5a6 6 0 0 0 6-6V156.57a6 6 0 0 1 6-6h206.47M-137.94 641.14h-4.02" stroke="#3a414a" stroke-width="2" fill="none"/><path d="M315.96 150.57l-13 7.5v-15z" stroke="#3a414a" stroke-width="2" fill="#3a414a"/><path d="M-137.96 641.14H83.5a6 6 0 0 1 6 6V985.7a6 6 0 0 0 6 6h206.47M-137.94 641.14h-4.02" stroke="#3a414a" stroke-width="2" fill="none"/><path d="M315.96 991.7l-13 7.5v-15z" stroke="#3a414a" stroke-width="2" fill="#3a414a"/><path d="M-137.96 641.14H83.5a6 6 0 0 1 6 6v478.56a6 6 0 0 0 6 6h206.47M-137.94 641.14h-4.02" stroke="#3a414a" stroke-width="2" fill="none"/><path d="M315.96 1131.7l-13 7.5v-15z" stroke="#3a414a" stroke-width="2" fill="#3a414a"/><defs><path d="M763 24c-353 0-583-224-583-531v-983h190v968c0 214 149 370 393 370 243 0 391-156 391-370v-968h190v983c0 307-230 531-581 531" id="v"/><path d="M538 24C308 24 148-78 108-271l171-41c32 123 123 178 257 178 156 0 256-77 256-169 0-77-54-128-164-154l-186-44c-203-48-300-148-300-305 0-192 176-326 414-326 230 0 351 112 402 269l-163 42c-31-80-94-158-238-158-133 0-233 69-233 162 0 83 57 129 188 160l169 40c203 48 298 149 298 302 0 196-179 339-441 339" id="w"/><path d="M628 24c-324 0-524-230-524-574 0-343 198-582 503-582 237 0 487 146 487 559v75H286c9 234 145 362 343 362 132 0 231-58 273-172l174 48C1024-91 857 24 628 24zM287-650h624c-17-190-120-322-304-322-192 0-309 151-320 322" id="x"/><path d="M158 0v-1118h174v172h12c41-113 157-188 290-188 26 0 70 2 91 3v181c-11-2-60-10-108-10-161 0-279 109-279 260V0H158" id="y"/><g id="a"><use transform="matrix(0.010850694444444444,0,0,0.010850694444444444,0,0)" xlink:href="#v"/><use transform="matrix(0.010850694444444444,0,0,0.010850694444444444,16.536458333333332,0)" xlink:href="#w"/><use transform="matrix(0.010850694444444444,0,0,0.010850694444444444,28.266059027777775,0)" xlink:href="#x"/><use transform="matrix(0.010850694444444444,0,0,0.010850694444444444,41.22178819444444,0)" xlink:href="#y"/></g><path d="M180 0v-1490h190v1322h690V0H180" id="z"/><path d="M613 24c-304 0-509-231-509-576 0-350 205-580 509-580 305 0 511 230 511 580 0 345-206 576-511 576zm0-161c226 0 329-195 329-415 0-222-103-419-329-419-223 0-326 196-326 419 0 220 103 415 326 415" id="A"/><path d="M611 442c-248 0-391-105-460-228l146-94c47 65 117 165 314 165 178 0 307-82 307-266v-224h-17C863-141 792-18 576-18c-268 0-472-195-472-546 0-346 197-568 476-568 216 0 288 133 326 193h17v-179h175V29c0 289-215 413-487 413zm-5-620c203 0 314-146 314-390 0-237-108-403-314-403-213 0-319 180-319 403 0 230 109 390 319 390" id="B"/><path d="M158 0v-1118h180V0H158zm91-1301c-68 0-125-53-125-119s57-119 125-119c69 0 126 53 126 119s-57 119-126 119" id="C"/><path d="M338-670V0H158v-1118h173l1 207c72-158 192-221 342-221 226 0 378 139 378 422V0H872v-695c0-172-96-275-252-275-161 0-282 109-282 300" id="D"/><path d="M692-1560L212 224H46l480-1784h166" id="E"/><path d="M537 14c-226 0-379-139-379-422v-710h180v695c0 172 97 275 253 275 160 0 281-109 281-300v-670h181V0H879v-209C806-46 684 14 537 14" id="F"/><path d="M598-1118v154H368v674c0 100 37 144 132 144 23 0 62-6 92-12L629-6c-37 13-88 20-134 20-193 0-307-107-307-290v-688H20v-154h168v-266h180v266h230" id="G"/><g id="b"><use transform="matrix(0.008173828125000001,0,0,0.008173828125000001,0,0)" xlink:href="#z"/><use transform="matrix(0.008173828125000001,0,0,0.008173828125000001,9.465292968750001,0)" xlink:href="#A"/><use transform="matrix(0.008173828125000001,0,0,0.008173828125000001,19.50275390625,0)" xlink:href="#B"/><use transform="matrix(0.008173828125000001,0,0,0.008173828125000001,29.76908203125,0)" xlink:href="#C"/><use transform="matrix(0.008173828125000001,0,0,0.008173828125000001,33.82330078125,0)" xlink:href="#D"/><use transform="matrix(0.008173828125000001,0,0,0.008173828125000001,43.713632812499995,0)" xlink:href="#E"/><use transform="matrix(0.008173828125000001,0,0,0.008173828125000001,49.74591796874999,0)" xlink:href="#z"/><use transform="matrix(0.008173828125000001,0,0,0.008173828125000001,59.21121093749999,0)" xlink:href="#A"/><use transform="matrix(0.008173828125000001,0,0,0.008173828125000001,69.24867187499999,0)" xlink:href="#B"/><use transform="matrix(0.008173828125000001,0,0,0.008173828125000001,79.51499999999999,0)" xlink:href="#A"/><use transform="matrix(0.008173828125000001,0,0,0.008173828125000001,89.55246093749999,0)" xlink:href="#F"/><use transform="matrix(0.008173828125000001,0,0,0.008173828125000001,99.450966796875,0)" xlink:href="#G"/></g><path d="M158 418v-1536h174v179h20c37-59 106-193 324-193 279 0 474 222 474 576 0 356-194 580-473 580-213 0-288-135-325-197h-14v591H158zm492-555c209 0 317-186 317-421 0-232-105-413-317-413-206 0-314 166-314 413 0 249 111 421 314 421" id="H"/><path d="M577 24c-279 0-473-224-473-580 0-354 195-576 474-576 218 0 287 134 324 193h14v-551h180V0H922v-173h-20C865-111 790 24 577 24zm27-161c203 0 314-172 314-421 0-247-108-413-314-413-212 0-317 181-317 413 0 235 108 421 317 421" id="I"/><path d="M471 26C259 26 90-98 90-318c0-256 228-303 435-329 202-27 287-16 287-108 0-139-79-219-234-219-161 0-248 86-283 164l-173-57c86-203 278-265 451-265 150 0 419 46 419 395V0H815v-152h-12C765-73 660 26 471 26zm31-159c199 0 310-134 310-271v-155c-30 35-226 55-295 64-131 17-246 59-246 186 0 116 97 176 231 176" id="J"/><g id="c"><use transform="matrix(0.008173828125000001,0,0,0.008173828125000001,0,0)" xlink:href="#v"/><use transform="matrix(0.008173828125000001,0,0,0.008173828125000001,12.456914062500001,0)" xlink:href="#H"/><use transform="matrix(0.008173828125000001,0,0,0.008173828125000001,22.70689453125,0)" xlink:href="#I"/><use transform="matrix(0.008173828125000001,0,0,0.008173828125000001,32.956875000000004,0)" xlink:href="#J"/><use transform="matrix(0.008173828125000001,0,0,0.008173828125000001,42.356777343750004,0)" xlink:href="#G"/><use transform="matrix(0.008173828125000001,0,0,0.008173828125000001,47.669765625000004,0)" xlink:href="#x"/></g><path d="M613 24c-304 0-509-231-509-576 0-350 205-580 509-580 216 0 392 114 453 309l-173 49c-33-115-133-197-280-197-223 0-326 196-326 419 0 220 103 415 326 415 150 0 252-85 285-206l172 49C1010-95 832 24 613 24" id="K"/><g id="d"><use transform="matrix(0.008173828125000001,0,0,0.008173828125000001,0,0)" xlink:href="#J"/><use transform="matrix(0.008173828125000001,0,0,0.008173828125000001,9.399902343750002,0)" xlink:href="#K"/><use transform="matrix(0.008173828125000001,0,0,0.008173828125000001,18.96328125,0)" xlink:href="#K"/><use transform="matrix(0.008173828125000001,0,0,0.008173828125000001,28.526660156250003,0)" xlink:href="#A"/><use transform="matrix(0.008173828125000001,0,0,0.008173828125000001,38.56412109375,0)" xlink:href="#F"/><use transform="matrix(0.008173828125000001,0,0,0.008173828125000001,48.462626953125,0)" xlink:href="#D"/><use transform="matrix(0.008173828125000001,0,0,0.008173828125000001,58.35295898437501,0)" xlink:href="#G"/></g><path d="M338-1490V0H158v-1490h180" id="L"/><g id="e"><use transform="matrix(0.008173828125000001,0,0,0.008173828125000001,0,0)" xlink:href="#I"/><use transform="matrix(0.008173828125000001,0,0,0.008173828125000001,10.249980468750001,0)" xlink:href="#x"/><use transform="matrix(0.008173828125000001,0,0,0.008173828125000001,20.009531250000002,0)" xlink:href="#G"/><use transform="matrix(0.008173828125000001,0,0,0.008173828125000001,25.567734375000004,0)" xlink:href="#J"/><use transform="matrix(0.008173828125000001,0,0,0.008173828125000001,34.96763671875001,0)" xlink:href="#C"/><use transform="matrix(0.008173828125000001,0,0,0.008173828125000001,39.021855468750005,0)" xlink:href="#L"/><use transform="matrix(0.008173828125000001,0,0,0.008173828125000001,43.07607421875001,0)" xlink:href="#w"/></g><path d="M545 20c-263 0-445-160-445-446v-80h190v80c0 182 102 279 255 279 152 0 254-97 254-279v-1064h190v1064c0 286-181 446-444 446" id="M"/><path d="M481 0L54-1118h197c107 314 236 620 325 951 87-331 217-637 324-951h197L670 0H481" id="N"/><g id="f"><use transform="matrix(0.008173828125000001,0,0,0.008173828125000001,0,0)" xlink:href="#M"/><use transform="matrix(0.008173828125000001,0,0,0.008173828125000001,9.555205078125,0)" xlink:href="#A"/><use transform="matrix(0.008173828125000001,0,0,0.008173828125000001,19.592666015625,0)" xlink:href="#C"/><use transform="matrix(0.008173828125000001,0,0,0.008173828125000001,23.646884765625,0)" xlink:href="#D"/><use transform="matrix(0.008173828125000001,0,0,0.008173828125000001,33.537216796875,0)" xlink:href="#E"/><use transform="matrix(0.008173828125000001,0,0,0.008173828125000001,39.569501953125,0)" xlink:href="#z"/><use transform="matrix(0.008173828125000001,0,0,0.008173828125000001,49.034794921875,0)" xlink:href="#x"/><use transform="matrix(0.008173828125000001,0,0,0.008173828125000001,58.957822265625,0)" xlink:href="#J"/><use transform="matrix(0.008173828125000001,0,0,0.008173828125000001,68.112509765625,0)" xlink:href="#N"/><use transform="matrix(0.008173828125000001,0,0,0.008173828125000001,77.1936328125,0)" xlink:href="#x"/></g><path d="M458 0L52-1490h194c108 439 233 855 324 1313 92-459 221-873 331-1313h216c110 438 234 854 330 1307 92-455 216-869 323-1307h196L1558 0h-221l-256-944c-26-95-50-200-73-331-22 122-44 223-73 331L680 0H458" id="O"/><path d="M338-670V0H158v-1490h180v566c73-149 190-208 336-208 226 0 379 139 379 422V0H872v-695c0-172-96-275-252-275-161 0-282 109-282 300" id="P"/><path d="M180 0v-1490h510c348 0 508 209 508 474 0 266-160 477-507 477H370V0H180zm190-706h312c236 0 327-133 327-310 0-176-91-307-329-307H370v617" id="Q"/><path d="M140 405l46-156c120 36 205 19 263-150l32-93L54-1118h197c107 313 237 620 324 950 87-331 219-637 326-950h196L606 167c-68 178-176 259-334 259-64 0-113-12-132-21" id="R"/><g id="g"><use transform="matrix(0.008173828125000001,0,0,0.008173828125000001,0,0)" xlink:href="#O"/><use transform="matrix(0.008173828125000001,0,0,0.008173828125000001,15.644707031250004,0)" xlink:href="#J"/><use transform="matrix(0.008173828125000001,0,0,0.008173828125000001,25.044609375000007,0)" xlink:href="#G"/><use transform="matrix(0.008173828125000001,0,0,0.008173828125000001,30.357597656250007,0)" xlink:href="#K"/><use transform="matrix(0.008173828125000001,0,0,0.008173828125000001,39.92097656250001,0)" xlink:href="#P"/><use transform="matrix(0.008173828125000001,0,0,0.008173828125000001,49.81948242187501,0)" xlink:href="#Q"/><use transform="matrix(0.008173828125000001,0,0,0.008173828125000001,60.51084960937501,0)" xlink:href="#J"/><use transform="matrix(0.008173828125000001,0,0,0.008173828125000001,69.91075195312501,0)" xlink:href="#y"/><use transform="matrix(0.008173828125000001,0,0,0.008173828125000001,76.47433593750002,0)" xlink:href="#G"/><use transform="matrix(0.008173828125000001,0,0,0.008173828125000001,82.27775390625001,0)" xlink:href="#R"/></g><path d="M180 0v-1490h510c348 0 508 194 508 460 0 198-88 351-276 417L1256 0h-220L726-579c-117 2-238 0-356 1V0H180zm190-747h312c235 0 327-108 327-283 0-177-92-293-329-293H370v576" id="S"/><g id="h"><use transform="matrix(0.008173828125000001,0,0,0.008173828125000001,0,0)" xlink:href="#S"/><use transform="matrix(0.008173828125000001,0,0,0.008173828125000001,10.527890625000001,0)" xlink:href="#x"/><use transform="matrix(0.008173828125000001,0,0,0.008173828125000001,20.287441406250004,0)" xlink:href="#B"/><use transform="matrix(0.008173828125000001,0,0,0.008173828125000001,30.553769531250005,0)" xlink:href="#C"/><use transform="matrix(0.008173828125000001,0,0,0.008173828125000001,34.60798828125,0)" xlink:href="#w"/><use transform="matrix(0.008173828125000001,0,0,0.008173828125000001,43.443896484375,0)" xlink:href="#G"/><use transform="matrix(0.008173828125000001,0,0,0.008173828125000001,48.756884765625,0)" xlink:href="#x"/><use transform="matrix(0.008173828125000001,0,0,0.008173828125000001,58.516435546875,0)" xlink:href="#y"/></g><g id="i"><use transform="matrix(0.008173828125000001,0,0,0.008173828125000001,0,0)" xlink:href="#F"/><use transform="matrix(0.008173828125000001,0,0,0.008173828125000001,9.898505859375001,0)" xlink:href="#w"/><use transform="matrix(0.008173828125000001,0,0,0.008173828125000001,18.7344140625,0)" xlink:href="#x"/><use transform="matrix(0.008173828125000001,0,0,0.008173828125000001,28.49396484375,0)" xlink:href="#y"/></g><path d="M657 26c-323 0-524-166-541-416h195c15 169 171 246 346 246 202 0 356-106 356-265 5-203-294-238-475-293-239-73-380-191-380-389 0-252 224-419 512-419 294 0 499 171 508 396H992c-17-145-151-228-328-228-193 0-321 102-321 242 0 156 175 211 284 241l149 41c160 44 422 134 422 412 0 244-197 432-541 432" id="T"/><path d="M678-1118v154H420V0H240v-964H20v-154h220v-149c0-194 155-293 318-293 85 0 141 18 168 30l-50 154c-19-6-47-17-97-17-111 0-159 58-159 166v109h258" id="U"/><g id="j"><use transform="matrix(0.008173828125000001,0,0,0.008173828125000001,0,0)" xlink:href="#T"/><use transform="matrix(0.008173828125000001,0,0,0.008173828125000001,10.740410156250002,0)" xlink:href="#x"/><use transform="matrix(0.008173828125000001,0,0,0.008173828125000001,20.663437499999997,0)" xlink:href="#J"/><use transform="matrix(0.008173828125000001,0,0,0.008173828125000001,30.06333984375,0)" xlink:href="#y"/><use transform="matrix(0.008173828125000001,0,0,0.008173828125000001,36.087451171875,0)" xlink:href="#K"/><use transform="matrix(0.008173828125000001,0,0,0.008173828125000001,45.650830078125004,0)" xlink:href="#P"/><use transform="matrix(0.008173828125000001,0,0,0.008173828125000001,55.549335937500004,0)" xlink:href="#E"/><use transform="matrix(0.008173828125000001,0,0,0.008173828125000001,61.58162109375,0)" xlink:href="#U"/><use transform="matrix(0.008173828125000001,0,0,0.008173828125000001,67.77738281250001,0)" xlink:href="#C"/><use transform="matrix(0.008173828125000001,0,0,0.008173828125000001,71.83160156250001,0)" xlink:href="#L"/><use transform="matrix(0.008173828125000001,0,0,0.008173828125000001,76.13103515625002,0)" xlink:href="#G"/><use transform="matrix(0.008173828125000001,0,0,0.008173828125000001,81.44402343750002,0)" xlink:href="#x"/><use transform="matrix(0.008173828125000001,0,0,0.008173828125000001,91.20357421875002,0)" xlink:href="#y"/></g><path d="M158 0v-1118h175l1 205c55-151 181-225 313-225 147 0 245 90 285 228 53-141 190-228 352-228 194 0 352 125 352 384V0h-181v-749c0-161-105-225-225-225-151 0-243 103-243 244V0H807v-767c0-124-93-207-219-207-131 0-250 92-250 270V0H158" id="V"/><g id="k"><use transform="matrix(0.008173828125000001,0,0,0.008173828125000001,0,0)" xlink:href="#V"/><use transform="matrix(0.008173828125000001,0,0,0.008173828125000001,14.663847656250002,0)" xlink:href="#A"/><use transform="matrix(0.008173828125000001,0,0,0.008173828125000001,24.374355468750004,0)" xlink:href="#N"/><use transform="matrix(0.008173828125000001,0,0,0.008173828125000001,33.782431640625006,0)" xlink:href="#C"/><use transform="matrix(0.008173828125000001,0,0,0.008173828125000001,37.83665039062501,0)" xlink:href="#x"/><use transform="matrix(0.008173828125000001,0,0,0.008173828125000001,47.59620117187501,0)" xlink:href="#w"/></g><g id="l"><use transform="matrix(0.008173828125000001,0,0,0.008173828125000001,0,0)" xlink:href="#S"/><use transform="matrix(0.008173828125000001,0,0,0.008173828125000001,10.691367187500001,0)" xlink:href="#J"/><use transform="matrix(0.008173828125000001,0,0,0.008173828125000001,20.091269531250003,0)" xlink:href="#G"/><use transform="matrix(0.008173828125000001,0,0,0.008173828125000001,25.404257812500003,0)" xlink:href="#x"/></g><g id="m"><use transform="matrix(0.008173828125000001,0,0,0.008173828125000001,0,0)" xlink:href="#J"/><use transform="matrix(0.008173828125000001,0,0,0.008173828125000001,9.399902343750002,0)" xlink:href="#D"/><use transform="matrix(0.008173828125000001,0,0,0.008173828125000001,19.290234375000004,0)" xlink:href="#I"/></g><path d="M409 0L70-1118h191c89 329 165 560 243 925 75-353 154-601 240-925h192c85 325 161 564 235 922 77-354 157-598 244-922h191L1267 0h-179c-86-307-176-590-250-913C763-588 675-308 588 0H409" id="W"/><g id="n"><use transform="matrix(0.008173828125000001,0,0,0.008173828125000001,0,0)" xlink:href="#S"/><use transform="matrix(0.008173828125000001,0,0,0.008173828125000001,10.527890625000001,0)" xlink:href="#x"/><use transform="matrix(0.008173828125000001,0,0,0.008173828125000001,19.96048828125,0)" xlink:href="#N"/><use transform="matrix(0.008173828125000001,0,0,0.008173828125000001,29.368564453125003,0)" xlink:href="#C"/><use transform="matrix(0.008173828125000001,0,0,0.008173828125000001,33.42278320312501,0)" xlink:href="#x"/><use transform="matrix(0.008173828125000001,0,0,0.008173828125000001,42.879902343750004,0)" xlink:href="#W"/></g><g id="o"><use transform="matrix(0.008173828125000001,0,0,0.008173828125000001,0,0)" xlink:href="#V"/><use transform="matrix(0.008173828125000001,0,0,0.008173828125000001,14.663847656250002,0)" xlink:href="#A"/><use transform="matrix(0.008173828125000001,0,0,0.008173828125000001,24.374355468750004,0)" xlink:href="#N"/><use transform="matrix(0.008173828125000001,0,0,0.008173828125000001,33.782431640625006,0)" xlink:href="#C"/><use transform="matrix(0.008173828125000001,0,0,0.008173828125000001,37.83665039062501,0)" xlink:href="#x"/></g><path d="M52 0l541-1490h220L1361 0h-200l-149-416H398L254 0H52zm404-582h497c-103-290-145-390-251-756-108 377-145 460-246 756" id="X"/><g id="p"><use transform="matrix(0.008173828125000001,0,0,0.008173828125000001,0,0)" xlink:href="#X"/><use transform="matrix(0.008173828125000001,0,0,0.008173828125000001,11.549619140625001,0)" xlink:href="#I"/><use transform="matrix(0.008173828125000001,0,0,0.008173828125000001,21.799599609375,0)" xlink:href="#I"/><use transform="matrix(0.008173828125000001,0,0,0.008173828125000001,32.049580078125004,0)" xlink:href="#E"/><use transform="matrix(0.008173828125000001,0,0,0.008173828125000001,38.081865234375,0)" xlink:href="#S"/><use transform="matrix(0.008173828125000001,0,0,0.008173828125000001,48.60975585937501,0)" xlink:href="#x"/><use transform="matrix(0.008173828125000001,0,0,0.008173828125000001,58.369306640625005,0)" xlink:href="#V"/><use transform="matrix(0.008173828125000001,0,0,0.008173828125000001,73.03315429687501,0)" xlink:href="#A"/><use transform="matrix(0.008173828125000001,0,0,0.008173828125000001,82.74366210937501,0)" xlink:href="#N"/><use transform="matrix(0.008173828125000001,0,0,0.008173828125000001,91.82478515625,0)" xlink:href="#x"/></g><path d="M180 0v-1490h270l367 940c28 72 75 218 110 339 35-117 81-264 110-339l362-940h271V0h-187c2-448-5-837 7-1287-157 497-311 829-483 1287H842C666-458 514-784 354-1284c12 438 5 843 7 1284H180" id="Y"/><g id="q"><use transform="matrix(0.008173828125000001,0,0,0.008173828125000001,0,0)" xlink:href="#Y"/><use transform="matrix(0.008173828125000001,0,0,0.008173828125000001,15.121582031250002,0)" xlink:href="#A"/><use transform="matrix(0.008173828125000001,0,0,0.008173828125000001,24.83208984375001,0)" xlink:href="#N"/><use transform="matrix(0.008173828125000001,0,0,0.008173828125000001,34.24016601562501,0)" xlink:href="#C"/><use transform="matrix(0.008173828125000001,0,0,0.008173828125000001,38.29438476562501,0)" xlink:href="#x"/></g><g id="r"><use transform="matrix(0.008173828125000001,0,0,0.008173828125000001,0,0)" xlink:href="#G"/><use transform="matrix(0.008173828125000001,0,0,0.008173828125000001,5.312988281250001,0)" xlink:href="#A"/></g><g id="s"><use transform="matrix(0.008173828125000001,0,0,0.008173828125000001,0,0)" xlink:href="#O"/><use transform="matrix(0.008173828125000001,0,0,0.008173828125000001,15.644707031250004,0)" xlink:href="#J"/><use transform="matrix(0.008173828125000001,0,0,0.008173828125000001,25.044609375000007,0)" xlink:href="#G"/><use transform="matrix(0.008173828125000001,0,0,0.008173828125000001,30.357597656250007,0)" xlink:href="#K"/><use transform="matrix(0.008173828125000001,0,0,0.008173828125000001,39.92097656250001,0)" xlink:href="#P"/><use transform="matrix(0.008173828125000001,0,0,0.008173828125000001,49.81948242187501,0)" xlink:href="#z"/><use transform="matrix(0.008173828125000001,0,0,0.008173828125000001,59.28477539062501,0)" xlink:href="#C"/><use transform="matrix(0.008173828125000001,0,0,0.008173828125000001,63.338994140625005,0)" xlink:href="#w"/><use transform="matrix(0.008173828125000001,0,0,0.008173828125000001,72.17490234375,0)" xlink:href="#G"/></g><path d="M600 0L52-1490h200c166 485 304 806 458 1336 156-533 285-846 449-1336h202L819 0H600" id="Z"/><g id="t"><use transform="matrix(0.008173828125000001,0,0,0.008173828125000001,0,0)" xlink:href="#Z"/><use transform="matrix(0.008173828125000001,0,0,0.008173828125000001,11.549619140625001,0)" xlink:href="#C"/><use transform="matrix(0.008173828125000001,0,0,0.008173828125000001,15.603837890625002,0)" xlink:href="#x"/><use transform="matrix(0.008173828125000001,0,0,0.008173828125000001,25.060957031250002,0)" xlink:href="#W"/></g><g id="u"><use transform="matrix(0.008173828125000001,0,0,0.008173828125000001,0,0)" xlink:href="#Y"/><use transform="matrix(0.008173828125000001,0,0,0.008173828125000001,15.121582031250002,0)" xlink:href="#A"/><use transform="matrix(0.008173828125000001,0,0,0.008173828125000001,24.83208984375001,0)" xlink:href="#N"/><use transform="matrix(0.008173828125000001,0,0,0.008173828125000001,34.24016601562501,0)" xlink:href="#C"/><use transform="matrix(0.008173828125000001,0,0,0.008173828125000001,38.29438476562501,0)" xlink:href="#x"/></g></defs></g></svg>